<svg xmlns="http://www.w3.org/2000/svg" viewBox="0 0 512 512">
  <defs>
    <linearGradient id="g" x1="0" x2="1" y1="0" y2="1">
      <stop offset="0%" stop-color="#d41b66"/>
      <stop offset="55%" stop-color="#e0913e"/>
      <stop offset="100%" stop-color="#2e7d32"/>
    </linearGradient>
    <filter id="s" x="-20%" y="-20%" width="140%" height="140%">
      <feDropShadow dx="0" dy="16" stdDeviation="18" flood-opacity="0.28"/>
    </filter>
  </defs>
  <rect width="512" height="512" rx="112" fill="#fffaf0"/>
  <circle cx="256" cy="256" r="188" fill="url(#g)" filter="url(#s)"/>
  <path d="M166 288c-20 0-36-16-36-36s16-36 36-36h18v72h-18zm180 0h-18v-72h18c20 0 36 16 36 36s-16 36-36 36z" fill="#fffaf0"/>
  <path d="M154 230c10-58 50-98 102-98s92 40 102 98" fill="none" stroke="#fffaf0" stroke-width="34" stroke-linecap="round"/>
  <rect x="224" y="216" width="64" height="118" rx="32" fill="#fffaf0"/>
  <path d="M210 350h92" stroke="#fffaf0" stroke-width="28" stroke-linecap="round"/>
  <text x="256" y="438" text-anchor="middle" font-family="Arial, sans-serif" font-size="58" font-weight="800" fill="#d41b66">PA</text>
</svg>
